<svg viewBox="0 0 1024 1024">
  <path d="M571.4 849.9Q560.3 849.9 519.5 808.9T478.8 756.7Q478.8 738.8 513.7 726.6T571.4 714.3 629.2 726.6 664.1 756.7Q664.1 767.9 623.3 808.9T571.4 849.9ZM722.1 698.7Q721 698.7 699.8 684.7T643.1 656.8 571.4 642.9 499.7 656.8 443.4 684.7 420.8 698.7Q410.7 698.7 368.6 656.8T326.5 604.9Q326.5 597.7 332 592.1 375.6 549.1 441.4 524.6T571.4 500 701.5 524.6 810.8 592.1Q816.4 597.7 816.4 604.9 816.4 615 774.3 656.8T722.1 698.7ZM874.4 546.9Q868.3 546.9 861.6 542.4 785.7 483.8 721 456.2T571.4 428.6Q524 428.6 476.3 440.8T393.1 470.4 329.8 505 285.7 534.6 268.4 546.9Q258.9 546.9 217.1 505T175.2 453.1Q175.2 446.4 180.8 440.8 254.5 367.2 359.4 326.5T571.4 285.7 783.5 326.5 962.1 440.8Q967.6 446.4 967.6 453.1 967.6 463.2 925.8 505T874.4 546.9Z"></path>
</svg>
