<svg viewBox="0 0 890 1024">
  <path d="M857.1 125V750Q857.1 777.9 838.2 799.7T790.2 833.4 732.4 851.3 678.6 857.1 624.7 851.3 567 833.4 519 799.7 500 750 519 700.3 567 666.6 624.7 648.7 678.6 642.9Q737.2 642.9 785.7 664.6V365L357.1 497.2V892.9Q357.1 920.8 338.2 942.5T290.2 976.3 232.4 994.1 178.6 1000 124.7 994.1 67 976.3 19 942.5 0 892.9 19 843.2 67 809.4 124.7 791.6 178.6 785.7Q237.2 785.7 285.7 807.5V267.9Q285.7 250.6 296.3 236.3T323.7 216.5L787.9 73.7Q794.6 71.4 803.6 71.4 825.9 71.4 841.5 87.1T857.1 125Z"></path>
</svg>
