<svg xmlns="http://www.w3.org/2000/svg" width="320" height="320" viewBox="0 0 320 320">
  <path
     d="M 77.700016,48 H 386.29999 c 25.31779,0 45.69999,20.382172 45.69999,45.700013 V 226.29995 c 0,25.31784 -20.3822,45.70001 -45.69999,45.70001 H 77.700016 c -25.317801,0 -45.699999,-20.38217 -45.699999,-45.70001 V 93.700013 C 32.000017,68.382172 52.382215,48 77.700016,48 Z"
     style="fill:none;stroke:#000000;stroke-width:32px;stroke-linecap:square;stroke-miterlimit:10"
     id="rect64" />
  <path
     d="m 480,122.66998 v 74.65999"
     style="fill:none;stroke:#000000;stroke-width:32px;stroke-linecap:round;stroke-miterlimit:10"
     id="line68" />
  <path
     d="m 97.910156,86.929688 c -15.281289,-10e-7 -28.43164,13.150282 -28.43164,28.431642 v 89.47656 c 0,15.28116 13.150351,28.43359 28.43164,28.43359 H 367.04492 c 15.28131,0 28.4336,-13.15248 28.4336,-28.43359 v -89.47656 c 0,-15.28131 -13.15229,-28.431642 -28.4336,-28.431642 z"
     style="color:#000000;font-style:normal;font-variant:normal;font-weight:normal;font-stretch:normal;font-size:medium;line-height:normal;font-family:sans-serif;font-variant-ligatures:normal;font-variant-position:normal;font-variant-caps:normal;font-variant-numeric:normal;font-variant-alternates:normal;font-variant-east-asian:normal;font-feature-settings:normal;font-variation-settings:normal;text-indent:0;text-align:start;text-decoration:none;text-decoration-line:none;text-decoration-style:solid;text-decoration-color:#000000;letter-spacing:normal;word-spacing:normal;text-transform:none;writing-mode:lr-tb;direction:ltr;text-orientation:mixed;dominant-baseline:auto;baseline-shift:baseline;text-anchor:start;white-space:normal;shape-padding:0;shape-margin:0;inline-size:0;clip-rule:nonzero;display:none;overflow:visible;visibility:visible;isolation:auto;mix-blend-mode:normal;color-interpolation:sRGB;color-interpolation-filters:linearRGB;solid-color:#000000;solid-opacity:1;vector-effect:none;fill:#000000;fill-opacity:1;fill-rule:nonzero;stroke:none;stroke-width:54.3893;stroke-linecap:butt;stroke-linejoin:round;stroke-miterlimit:10;stroke-dasharray:none;stroke-dashoffset:0;stroke-opacity:1;color-rendering:auto;image-rendering:auto;shape-rendering:auto;text-rendering:auto;enable-background:accumulate;stop-color:#000000;stop-opacity:1"
     id="path1147" />
</svg>
