<svg xmlns="http://www.w3.org/2000/svg" width="320" height="320" viewBox="0 0 320 320">
  <path
     id="path70"
     d="M 48,210.3 V 77.7 A 29.74,29.74 0 0 1 77.7,48 h 137.44 l 24.4,-32 H 77.7 A 61.77,61.77 0 0 0 16,77.7 V 210.3 A 61.77,61.77 0 0 0 77.7,272 h 96.85 a 22.57,22.57 0 0 1 0.26,-7.32 l 0.15,-0.75 0.21,-0.73 6.5,-23.2 H 77.7 A 29.74,29.74 0 0 1 48,210.3 Z" />
  <path
     id="path72"
     d="m 386.3,16 h -98.64 a 22.69,22.69 0 0 1 -0.27,7.2 l -0.15,0.74 -0.21,0.73 L 280.49,48 H 386.3 A 29.74,29.74 0 0 1 416,77.7 V 210.3 A 29.74,29.74 0 0 1 386.3,240 H 247 l -24.42,32 H 386.3 A 61.77,61.77 0 0 0 448,210.3 V 77.7 A 61.77,61.77 0 0 0 386.3,16 Z" />
  <path
     id="path74"
     d="m 162.65,182.16 a 24.37,24.37 0 0 1 -21.56,-13 25,25 0 0 1 1.42,-25.83 l 0.31,-0.46 0.33,-0.44 L 197.62,71 H 89.69 a 20,20 0 0 0 -20,20 v 106 a 20,20 0 0 0 20,20 h 98.42 l 9.78,-34.86 z" />
  <path
     id="path76"
     d="m 276.07,168.89 27.07,-35.49 a 5.2,5.2 0 0 0 0.77,-1.91 5,5 0 0 0 0.08,-0.66 5,5 0 0 0 -0.08,-1.29 5.11,5.11 0 0 0 -0.68,-1.75 4.76,4.76 0 0 0 -0.78,-0.95 3.48,3.48 0 0 0 -0.48,-0.38 4,4 0 0 0 -1.11,-0.55 4.28,4.28 0 0 0 -1.31,-0.2 H 237.93 L 250.05,82.5 253.28,71 259.49,48.84 260,47 267.79,19.24 v 0 a 3.51,3.51 0 0 0 0.05,-0.55 c 0,-0.06 0,-0.11 0,-0.16 0,-0.05 0,-0.26 -0.05,-0.38 -0.05,-0.12 0,-0.09 0,-0.14 a 2.2,2.2 0 0 0 -0.17,-0.45 v 0 a 3.77,3.77 0 0 0 -0.26,-0.39 l -0.09,-0.1 a 2.73,2.73 0 0 0 -0.25,-0.23 l -0.1,-0.08 a 3.14,3.14 0 0 0 -0.39,-0.24 v 0 a 2,2 0 0 0 -0.41,-0.14 h -0.13 -0.33 -0.13 a 2.3,2.3 0 0 0 -0.45,0 v 0 a 1.9,1.9 0 0 0 -0.42,0.15 l -0.13,0.07 -0.3,0.21 -0.11,0.1 a 2.4,2.4 0 0 0 -0.36,0.41 v 0 l -18,23.63 -13.14,17.22 -9.85,12.83 -63.71,83.55 a 5.72,5.72 0 0 0 -0.44,0.8 4.78,4.78 0 0 0 -0.35,1.09 4.7,4.7 0 0 0 -0.08,1.29 4.86,4.86 0 0 0 2,3.71 4.74,4.74 0 0 0 0.54,0.31 4.31,4.31 0 0 0 1.89,0.43 h 61.62 L 194.42,268.6 a 3.64,3.64 0 0 0 0,0.56 c 0,0 0,0.1 0,0.15 a 2.32,2.32 0 0 0 0.06,0.38 0.58,0.58 0 0 0 0,0.14 2.2,2.2 0 0 0 0.17,0.45 v 0 a 3.62,3.62 0 0 0 0.26,0.38 l 0.09,0.1 0.25,0.24 a 0.39,0.39 0 0 1 0.1,0.08 2.22,2.22 0 0 0 0.39,0.23 v 0 a 2.83,2.83 0 0 0 0.41,0.14 h 0.13 a 1.86,1.86 0 0 0 0.33,0 h 0.13 a 2.32,2.32 0 0 0 0.45,-0.06 v 0 a 2.05,2.05 0 0 0 0.41,-0.16 l 0.13,-0.07 0.3,-0.21 0.11,-0.09 a 2.4,2.4 0 0 0 0.36,-0.41 v 0 L 221.82,240 239.35,217 Z" />
  <path
     id="path78"
     d="m 319.5,144.93 -0.46,0.6 -54.53,71.47 h 109.8 a 20,20 0 0 0 20,-20 V 91 a 20,20 0 0 0 -20,-20 H 274.05 l -9.74,34.73 h 35.24 a 24.35,24.35 0 0 1 21.45,12.77 25.21,25.21 0 0 1 -1,25.79 z" />
  <path
     id="path80"
     d="m 480,90.67 a 16,16 0 0 0 -16,16 v 74.66 a 16,16 0 0 0 32,0 v -74.66 a 16,16 0 0 0 -16,-16 z" />
</svg>
